<?xml version="1.0" encoding="UTF-8"?>
<svg width="126px" height="20px" viewBox="0 0 126 20" version="1.1" xmlns="http://www.w3.org/2000/svg" xmlns:xlink="http://www.w3.org/1999/xlink">
    <!-- Generator: Sketch 49.3 (51167) - http://www.bohemiancoding.com/sketch -->
    <title>Brand/Logo/xm-white</title>
    <desc>Created with Sketch.</desc>
    <defs></defs>
    <g id="Page-1" stroke="none" stroke-width="1" fill="none" fill-rule="evenodd">
        <g id="Brand" transform="translate(-27.000000, -31.000000)">
            <g id="Brand/Logo/xm-white" transform="translate(26.000000, 29.000000)">
                <g id="xm-logo" transform="translate(1.700000, 2.000000)">
                    <path d="M112.828538,15.5359956 L111.554824,15.5359956 L111.554824,0.530377999 L112.828538,0 L112.828538,15.5359956 Z M107.824416,3.12952161 C108.282657,3.12952161 108.653871,2.75009735 108.653871,2.2823739 C108.653871,1.81435902 108.282657,1.43522618 107.824416,1.43522618 C107.366461,1.43522618 106.994961,1.81435902 106.994961,2.2823739 C106.994961,2.75009735 107.366461,3.12952161 107.824416,3.12952161 Z M107.187559,15.5359956 L108.461273,15.5359956 L108.461273,5.13009577 L107.187559,5.13009577 L107.187559,15.5359956 Z M96.1541243,12.2260871 L96.1541243,8.22406457 C96.5995248,7.45122806 97.9348703,6.13344272 99.8040687,6.13344272 C100.649788,6.13344272 101.540018,6.42893904 102.252487,7.01993166 C103.142718,7.77003769 103.676856,8.97475343 103.676856,10.3161435 C103.676856,11.7484555 103.053409,13.0213627 102.074156,13.7260078 C101.428739,14.1806175 100.649788,14.4988443 99.7818129,14.4988443 C98.2906771,14.4988443 96.9553316,13.6353772 96.1541243,12.2260871 Z M94.8804101,0.530377999 L94.8804101,15.5359956 L96.1093274,15.5359956 L96.1093274,13.9760431 C96.8660232,15.0216455 98.179113,15.7262905 99.7592718,15.7262905 C100.716555,15.7262905 101.784831,15.4762552 102.786626,14.7488796 C104.122257,13.7939078 104.945434,12.1803347 104.945434,10.3161435 C104.945434,8.58862659 104.210994,7.06539264 103.053409,6.06525126 C102.207976,5.36060621 101.050677,4.90599649 99.8263244,4.90599649 C98.3799855,4.90599649 97.0651837,5.50281745 96.1541243,6.51927815 L96.1541243,0 L94.8804101,0.530377999 Z M91.1896634,10.3152693 C91.1896634,12.6337788 89.5204815,14.4976786 87.2281384,14.4976786 C84.9355099,14.4976786 83.266328,12.6337788 83.266328,10.3152693 C83.266328,7.99675972 84.9355099,6.13256847 87.2281384,6.13256847 C89.5204815,6.13256847 91.1896634,7.99675972 91.1896634,10.3152693 Z M92.4582417,10.3152693 C92.4582417,7.33757563 90.2549215,4.90570508 87.2281384,4.90570508 C84.2010698,4.90570508 81.9977497,7.33757563 81.9977497,10.3152693 C81.9977497,13.2929629 84.2010698,15.7254163 87.2281384,15.7254163 C90.2549215,15.7254163 92.4582417,13.2929629 92.4582417,10.3152693 Z M116.527274,9.24722785 C116.905337,7.45151948 118.240967,6.13285989 120.043684,6.13285989 C121.801889,6.13285989 123.181746,7.42878899 123.4491,9.24722785 L116.527274,9.24722785 Z M124.761905,9.97460339 C124.761905,7.0878317 122.759172,4.90570508 120.043684,4.90570508 C117.172691,4.90570508 115.191643,7.33786705 115.191643,10.3152693 C115.191643,13.5432896 117.439475,15.7254163 120.288497,15.7254163 C122.225034,15.7254163 123.661671,14.8322247 124.564456,13.644994 L124.245457,13.3535775 C123.933876,13.069155 123.46194,13.0755662 123.155781,13.3663998 C122.340878,14.1401106 121.390728,14.49797 120.288497,14.49797 C117.951643,14.49797 116.549244,12.6340702 116.460507,10.4289217 L124.739649,10.4289217 C124.761905,10.2246387 124.761905,10.0655253 124.761905,9.97460339 Z M70.7249226,10.1963713 C70.7249226,8.73637475 70.5012237,8.05154601 70.1439902,7.50397444 C69.6078547,6.68247138 68.6916593,6.1348998 67.5745914,6.1348998 C66.1893131,6.1348998 64.8488317,7.00186384 64.1785909,8.30245561 L64.1785909,15.5359956 L62.9051621,15.5359956 L62.9051621,5.13097002 L64.1340794,5.13097002 L64.1340794,6.54550563 C64.8713727,5.56430633 66.1670574,4.90279091 67.5745914,4.90279091 C69.2725917,4.90279091 70.6798404,5.76975495 71.3951634,7.11580769 C72.1099156,6.06612551 73.3610887,4.90279091 75.3940667,4.90279091 C77.0698112,4.90279091 78.4773452,5.76975495 79.2146386,7.0930772 C79.5944131,7.80063642 79.8178267,8.64486997 79.8178267,10.0366751 L79.8178267,15.5359956 C79.8178267,15.5359956 79.5327818,15.5359956 79.1809696,15.5359956 C78.8294428,15.5359956 78.5443978,15.2448705 78.5443978,14.885554 L78.5443978,10.1963713 C78.5443978,8.73637475 78.3209843,8.05154601 77.9634655,7.50397444 C77.42733,6.68247138 76.5111346,6.1348998 75.3940667,6.1348998 C73.763119,6.1348998 72.5119459,7.29823441 71.886502,8.55365662 C71.9532693,8.96397102 71.9983515,9.46608162 71.9983515,10.0366751 L71.9983515,15.5359956 C71.9983515,15.5359956 71.7133066,15.5359956 71.3614944,15.5359956 C71.0099675,15.5359956 70.7249226,15.2448705 70.7249226,14.885554 L70.7249226,10.1963713 Z" id="Fill-1" fill="#333333"></path>
                    <path d="M86.7838338,19.5747834 C88.3578193,19.5747834 89.8351765,18.9640941 90.9465436,17.8562593 C91.0756663,17.7287715 91.1460709,17.5577444 91.1460709,17.3756189 C91.1460709,17.1932089 91.0756663,17.0213281 90.9451184,16.8924174 C90.8168508,16.7640759 90.6449723,16.6932177 90.4625473,16.6932177 C90.2806925,16.6932177 90.1082438,16.7640759 89.9802613,16.8935557 C89.1282797,17.7441383 87.9929693,18.2122576 86.785259,18.2122576 C85.5764085,18.2122576 84.4422383,17.7441383 83.5908268,16.8935557 C83.460849,16.7640759 83.2872602,16.692364 83.1048352,16.692364 C82.9238355,16.692364 82.752527,16.7640759 82.6228343,16.8935557 C82.4937116,17.0213281 82.423877,17.1932089 82.423877,17.3756189 C82.423877,17.5577444 82.4937116,17.7287715 82.6228343,17.8562593 C83.7327762,18.9640941 85.2109885,19.5747834 86.7838338,19.5747834 Z M86.7838338,0.812734694 C85.2109885,0.812734694 83.7327762,1.42370857 82.6228343,2.53125879 C82.4937116,2.65903116 82.423877,2.82977374 82.423877,3.01218373 C82.423877,3.19459372 82.4937116,3.36647459 82.6228343,3.49424696 C82.752527,3.62372675 82.9238355,3.69515406 83.1048352,3.69515406 C83.2872602,3.69515406 83.460849,3.62372675 83.5908268,3.49424696 C84.4422383,2.64366432 85.5764085,2.17554508 86.785259,2.17554508 C87.9929693,2.17554508 89.1282797,2.64366432 89.9802613,3.49424696 C90.1082438,3.62372675 90.2806925,3.69430035 90.4625473,3.69430035 C90.6449723,3.69430035 90.8168508,3.62372675 90.9451184,3.49538524 C91.0756663,3.36647459 91.1460709,3.19459372 91.1460709,3.01218373 C91.1460709,2.82977374 91.0756663,2.65903116 90.9465436,2.53125879 C89.8351765,1.42370857 88.3578193,0.812734694 86.7838338,0.812734694 Z" id="Fill-2" fill="#189BCB"></path>
                    <path d="M12.9122674,6.96345167 L12.9122674,15.2919903 L14.9679688,15.2919903 L14.9679688,6.96345167 L17.6022994,6.96345167 L17.6022994,5.13053004 L14.9679688,5.13053004 L14.9679688,4.37328669 C14.9679688,2.6399649 16.0055108,2.06200126 17.0233851,2.06200126 C17.2827706,2.06200126 17.5224884,2.10212576 17.7220158,2.1616011 L18.1410231,0.34859944 C17.8816376,0.2489996 17.4626303,0.14939976 16.8637633,0.14939976 C14.3092436,0.14939976 12.9122674,2.04208129 12.9122674,4.33344675 L12.9122674,5.13053004 L11.8345349,5.13053004 L10.5373223,6.96345167 L12.9122674,6.96345167 Z M41.4110383,11.6856224 C41.4110383,13.8970234 42.768109,15.4709854 45.2029123,15.4709854 C45.8017793,15.4709854 46.3005975,15.3913056 46.6996522,15.2717857 L46.2806448,13.4787041 C46.0212593,13.538464 45.7020156,13.5783039 45.3425814,13.5783039 C44.3449449,13.5783039 43.4667396,13.0401802 43.4667396,11.6457824 L43.4667396,6.96345167 L46.340503,6.96345167 L45.5024883,5.13053004 L43.4667396,5.13053004 L43.4667396,1.04608289 L41.4110383,1.94248145 L41.4110383,5.13053004 L39.2359055,5.13053004 L39.2359055,6.96345167 L41.4110383,6.96345167 L41.4110383,11.6856224 Z M23.7488807,5.13053004 L23.7488807,15.2919903 L25.8045821,15.2919903 L25.8045821,8.31829406 C26.4430695,7.42161093 27.3611801,6.86385183 28.4987709,6.86385183 C30.0154635,6.86385183 31.0532905,7.82029486 31.0532905,9.73289636 L31.0532905,14.3156273 C31.0532905,14.8933064 31.4526302,15.2919903 32.0113066,15.2919903 L33.1089919,15.2919903 L33.1089919,9.37433693 C33.1089919,6.74433202 31.4323924,4.91141039 28.9975891,4.91141039 C27.7006616,4.91141039 26.6229291,5.36956966 25.8045821,6.12681301 L25.8045821,5.13053004 L23.7488807,5.13053004 Z M50.4117153,18.8781537 L57.8557942,5.13053004 L56.7381562,5.13053004 C56.0597634,5.13053004 55.5409923,5.32972972 55.2613691,5.84764889 L52.3277475,11.2869384 L49.7931806,5.84764889 C49.5337951,5.30980975 48.9947863,5.13053004 48.3163935,5.13053004 L47.2386609,5.13053004 L51.1502514,13.4192287 L47.7374792,19.635397 L48.8551172,19.635397 C49.5537478,19.635397 50.1124243,19.4162774 50.4117153,18.8781537 Z M19.2387084,15.2919903 L21.2941247,15.2919903 L21.2941247,5.13053004 L19.2387084,5.13053004 L19.2387084,15.2919903 Z M35.5437952,15.2919903 L37.5992115,15.2919903 L37.5992115,5.13053004 L35.5437952,5.13053004 L35.5437952,15.2919903 Z M6.46611007,9.99214051 L10.0983622,5.13053004 L8.58166964,5.13053004 C7.90299175,5.13053004 7.46403166,5.36956966 7.1048825,5.84764889 L5.18885024,8.4178939 L3.33267617,5.84764889 C2.97352701,5.36956966 2.53456693,5.13053004 1.85588903,5.13053004 L0.339196429,5.13053004 L3.93154314,9.99214051 L0,15.2919903 L1.43688168,15.2919903 C2.11555957,15.2919903 2.55451966,15.0529507 2.91366882,14.5745869 L5.18885024,11.5661026 L10.5173696,18.9182782 C10.856566,19.3960728 11.3157639,19.635397 11.9944418,19.635397 L13.5510398,19.635397 L6.46611007,9.99214051 Z" id="Fill-4" fill="#333333"></path>
                </g>
            </g>
        </g>
    </g>
</svg>